Coordinates
version=1
nRows=13
nColumns=24
inDegrees=yes

Units are S.I. units (second, meters, Newtons, ...)
If the header above contains a line with 'inDegrees', this indicates whether rotational values are in degrees (yes) or radians (no).

endheader
time	pelvis_tilt	pelvis_list	pelvis_rotation	pelvis_tx	pelvis_ty	pelvis_tz	hip_flexion_r	hip_adduction_r	hip_rotation_r	knee_angle_r	ankle_angle_r	subtalar_angle_r	mtp_angle_r	hip_flexion_l	hip_adduction_l	hip_rotation_l	knee_angle_l	ankle_angle_l	subtalar_angle_l	mtp_angle_l	lumbar_extension	lumbar_bending	lumbar_rotation
1.0	5.900963058187772	0.43445581625145546	1.2907246531021217	0.604859379877056	1.0550241465663652	0.012492065639818542	14.847538627316716	-2.8451445077754713	-6.964505655279252	-54.23963871631603	3.0527115541739835	-3.317186951400584e-06	3.0173641725076123e-10	6.450441013823623	0.7326696846006784	0.1009463532931072	-55.02177279038643	3.4490801635217956	-1.1997888253028388e-07	-6.47937859243231e-16	-15.651116665587097	-1.2338782727422515	-4.510810415516019
1.017	5.620415867380537	-2.494864869313104	-2.1940329378369934	0.591898690976417	1.0623685155376255	0.03716245987072331	-6.899967194515775	1.504860402916104	-3.4096388417752928	-44.93862756719168	13.785972247969418	-2.199825626773321e-06	-7.057464800742746e-10	28.64711439710511	-3.842980707676506	-6.899468217058492	-47.32040922560896	-3.9172396292975185	-4.666205366948187e-06	-3.058431213042462e-17	-17.018348455823816	0.3854942910986584	2.7340218783026033
1.033	5.218434702055077	0.997893572240532	0.7498184942684764	0.6030941207669334	1.0405633333364017	0.038958956628080466	3.026936288871436	-0.40982711046046605	-3.4844505614452594	-30.014741507356824	3.8396940384768152	-3.27217032011998e-06	-1.439121877667176e-10	13.19762871471048	-1.7758832963537048	-2.0373401818759684	-60.490174485043774	2.9150578265669664	-2.0066796178938864e-06	-3.65838369275305e-16	-15.480813078102948	-0.03152618430186771	-1.1031037529801437
1.05	4.548868567717822	-3.2979745227712014	-5.279020673059075	0.5868048628760012	1.038931608329838	0.1053625728931453	-48.183171921781316	9.88897872136783	3.3225620487820935	17.332984800400055	16.81263744318595	4.311865343823458e-06	2.235947540358425e-10	57.47350168141618	-11.735930752983386	-16.19287599306996	-57.63084577626168	-10.857805421750122	-9.782207681109776e-06	6.28579538551796e-16	-17.938810295297625	3.3953168346855147	14.809210110954005
1.067	3.6283932441205358	-6.180969001775859	-3.9124803403274857	0.5763313923883336	1.0215288250541195	0.1200393689795235	-55.00656003528811	16.22119237885577	10.482625372579562	38.5659423049447	27.411803172487677	5.2449264252685255e-06	7.941611027879078e-10	54.09423768053502	-16.31821255006145	-15.969647874037012	-36.831091597566115	-10.171258414877665	-9.194429777864566e-06	-8.127475874096007e-16	-17.982788717868193	8.586904720246594	14.651357506068585
1.083	4.936480920673084	-3.0343276289154373	-1.8434783991682657	0.5854213662800906	1.044147355052848	0.059650527238578985	-16.788575680945307	5.124439909820063	-1.0445863576782177	-16.12746420093499	11.62608344054328	-2.348549188526585e-06	1.5927748751546248e-10	28.79146927491105	-7.316160237322505	-9.589844706110071	-34.39011162453842	-1.620688778499885	-7.135787170620925e-06	8.129471115825704e-16	-17.17069705721205	3.288871196928395	5.212829486020858
1.1	4.684351386038078	-4.500525243172801	-3.5234139807145497	0.5831947562850341	1.0520429287847188	0.10842673939072084	-45.19681134890229	12.146078428292636	2.968030736997163	9.16500360925437	17.117584817007724	3.5343420488082382e-06	5.052828739108151e-10	57.85500105329977	-14.235589428032032	-22.085289452326272	-48.83681600388083	-11.060171576541094	-1.4170487603521373e-05	-3.4516294953709433e-16	-18.14332951142481	5.674473892565382	14.037377240065297
1.117	5.076766430542991	-5.348624325527307	-4.11667806936288	0.5944655210191826	1.0506162111206963	0.08427995667652616	-35.355365802251114	8.323213745743333	0.42916058420449277	-25.715625046747135	12.327731988953609	6.99254436029313e-07	-1.645793961119148e-09	50.66544039039351	-11.479781674279225	-17.72461475728818	-42.447760528805986	-13.409559207799308	-7.805857254707422e-06	2.833391823056385e-16	-16.994935151178627	4.629095812724858	10.951666597365016
1.133	4.950676661461729	-2.361686375541388	-2.717027842567885	0.5895806583200484	1.0236337998854155	0.044724150654654425	-14.58852437047793	3.061352429411662	0.7306151797521349	-19.094528488715984	7.0511939237340595	3.684283234514026e-07	3.8042301930951184e-10	19.426558071185113	-4.223432378696948	-9.897929167724905	-18.32144005111809	-4.6577823661410225	-2.4725743085551643e-06	-5.511585761148968e-16	-16.1937827874621	1.2679032592615411	2.9118563290608517
1.15	4.284652654416844	-5.879939520503542	-4.202150674647725	0.5749220545732202	1.025157694032133	0.07185413883843966	-32.552748389973566	9.63299103692421	4.594274197727741	4.276555535268084	18.82624421958638	1.5001118115712577e-06	-7.673382688483784e-10	33.5749334343497	-9.750984187425622	-11.505611378013722	-8.425755334831688	-6.0347001135153375	-4.149854298029093e-06	2.806722275497465e-16	-17.56653895254512	5.591224358939034	8.872773395413162
1.167	4.901801724755814	0.5336496451848198	1.8783599533093125	0.5861722297309632	1.0264199546692103	0.006806790995951419	18.574953691764208	-2.3823469935975874	-7.049112198101524	-22.149140879503413	-2.0174657404160854	-5.55296543691303e-06	6.475498072219594e-10	-11.672199580301577	1.5275936259043679	0.6742435225657228	-11.968539193409978	10.439056232198135	4.4336778106215885e-07	1.5912434428201508e-16	-15.559948003346957	0.09901287715172646	-6.261678438483202
1.183	4.830213490391157	-6.028431365355117	-4.323864222448318	0.6020765757189426	1.0082674917565957	0.07048705417286488	-31.75834831117298	7.794506012404647	4.457784496919748	-22.101772311791816	8.2465911662866	3.9167358496684225e-06	-4.705717134331493e-10	31.547912459559708	-9.785775640378839	-5.848428405480898	-25.685277174794454	-9.783598128030478	2.5443854457611986e-06	-9.095995546781932e-16	-15.666884713463599	5.070166480533378	7.823077762912822
1.2	3.9498028740623448	-2.2344211442761255	-1.3211493142293844	0.5807388118839302	0.9935685712020372	0.02200869899548054	-2.320447766272963	2.3068925918838477	1.158562279929146	3.084985837513364	8.169958256597491	1.092457749518074e-06	7.716982499006391e-10	-5.592725202577363	-1.394072739819995	2.469135013309681	4.748011457347915	4.562798002688003	4.327287788727234e-06	9.639641516915349e-17	-15.349902374945492	1.4236514607629145	-2.474508564656018
